<svg width="133" height="89" viewBox="0 0 133 89" fill="none" xmlns="http://www.w3.org/2000/svg">
<path d="M49.0838 10.1477H47.3111C47.2429 9.76894 47.116 9.43561 46.9304 9.14773C46.7448 8.85985 46.5175 8.61553 46.2486 8.41477C45.9796 8.21401 45.6785 8.0625 45.3452 7.96023C45.0156 7.85795 44.6652 7.80682 44.294 7.80682C43.6236 7.80682 43.0232 7.97538 42.4929 8.3125C41.9664 8.64962 41.5497 9.14394 41.2429 9.79545C40.9399 10.447 40.7884 11.2424 40.7884 12.1818C40.7884 13.1288 40.9399 13.928 41.2429 14.5795C41.5497 15.2311 41.9683 15.7235 42.4986 16.0568C43.0289 16.3902 43.6255 16.5568 44.2884 16.5568C44.6558 16.5568 45.0043 16.5076 45.3338 16.4091C45.6671 16.3068 45.9683 16.1572 46.2372 15.9602C46.5062 15.7633 46.7334 15.5227 46.919 15.2386C47.1084 14.9508 47.2391 14.6212 47.3111 14.25L49.0838 14.2557C48.9891 14.8277 48.8054 15.3542 48.5327 15.8352C48.2637 16.3125 47.9171 16.7254 47.4929 17.0739C47.0724 17.4186 46.5914 17.6856 46.0497 17.875C45.508 18.0644 44.9171 18.1591 44.277 18.1591C43.2694 18.1591 42.3717 17.9205 41.5838 17.4432C40.7959 16.9621 40.1747 16.2746 39.7202 15.3807C39.2694 14.4867 39.044 13.4205 39.044 12.1818C39.044 10.9394 39.2713 9.87311 39.7259 8.98295C40.1804 8.08901 40.8016 7.40341 41.5895 6.92614C42.3774 6.44508 43.2732 6.20455 44.277 6.20455C44.8944 6.20455 45.4702 6.29356 46.0043 6.47159C46.5421 6.64583 47.0251 6.90341 47.4531 7.24432C47.8812 7.58144 48.2353 7.99432 48.5156 8.48295C48.7959 8.9678 48.9853 9.52273 49.0838 10.1477ZM54.7244 18.1761C53.9063 18.1761 53.1922 17.9886 52.5824 17.6136C51.9725 17.2386 51.4991 16.714 51.1619 16.0398C50.8248 15.3655 50.6562 14.5777 50.6562 13.6761C50.6562 12.7708 50.8248 11.9792 51.1619 11.3011C51.4991 10.6231 51.9725 10.0966 52.5824 9.72159C53.1922 9.34659 53.9063 9.15909 54.7244 9.15909C55.5426 9.15909 56.2566 9.34659 56.8665 9.72159C57.4763 10.0966 57.9498 10.6231 58.2869 11.3011C58.6241 11.9792 58.7926 12.7708 58.7926 13.6761C58.7926 14.5777 58.6241 15.3655 58.2869 16.0398C57.9498 16.714 57.4763 17.2386 56.8665 17.6136C56.2566 17.9886 55.5426 18.1761 54.7244 18.1761ZM54.7301 16.75C55.2604 16.75 55.6998 16.6098 56.0483 16.3295C56.3968 16.0492 56.6544 15.6761 56.821 15.2102C56.9915 14.7443 57.0767 14.2311 57.0767 13.6705C57.0767 13.1136 56.9915 12.6023 56.821 12.1364C56.6544 11.6667 56.3968 11.2898 56.0483 11.0057C55.6998 10.7216 55.2604 10.5795 54.7301 10.5795C54.196 10.5795 53.7528 10.7216 53.4006 11.0057C53.0521 11.2898 52.7926 11.6667 52.6222 12.1364C52.4555 12.6023 52.3722 13.1136 52.3722 13.6705C52.3722 14.2311 52.4555 14.7443 52.6222 15.2102C52.7926 15.6761 53.0521 16.0492 53.4006 16.3295C53.7528 16.6098 54.196 16.75 54.7301 16.75ZM62.3878 12.8182V18H60.6889V9.27273H62.3196V10.6932H62.4276C62.6283 10.2311 62.9427 9.85985 63.3707 9.57955C63.8026 9.29924 64.3461 9.15909 65.0014 9.15909C65.5961 9.15909 66.117 9.28409 66.5639 9.53409C67.0109 9.7803 67.3575 10.1477 67.6037 10.6364C67.8499 11.125 67.973 11.7292 67.973 12.4489V18H66.2741V12.6534C66.2741 12.0208 66.1094 11.5265 65.7798 11.1705C65.4503 10.8106 64.9976 10.6307 64.4219 10.6307C64.0279 10.6307 63.6776 10.7159 63.3707 10.8864C63.0677 11.0568 62.8272 11.3068 62.6491 11.6364C62.4749 11.9621 62.3878 12.3561 62.3878 12.8182ZM74.3253 9.27273V10.6364H69.5582V9.27273H74.3253ZM70.8366 7.18182H72.5355V15.4375C72.5355 15.767 72.5848 16.0152 72.6832 16.1818C72.7817 16.3447 72.9086 16.4564 73.0639 16.517C73.223 16.5739 73.3954 16.6023 73.581 16.6023C73.7173 16.6023 73.8366 16.5928 73.9389 16.5739C74.0412 16.5549 74.1207 16.5398 74.1776 16.5284L74.4844 17.9318C74.3859 17.9697 74.2457 18.0076 74.0639 18.0455C73.8821 18.0871 73.6548 18.1098 73.3821 18.1136C72.9351 18.1212 72.5185 18.0417 72.1321 17.875C71.7457 17.7083 71.4332 17.4508 71.1946 17.1023C70.956 16.7538 70.8366 16.3163 70.8366 15.7898V7.18182ZM78.7443 18.1932C78.1913 18.1932 77.6913 18.0909 77.2443 17.8864C76.7973 17.678 76.4432 17.3769 76.1818 16.983C75.9242 16.589 75.7955 16.1061 75.7955 15.5341C75.7955 15.0417 75.8902 14.6364 76.0795 14.3182C76.2689 14 76.5246 13.7481 76.8466 13.5625C77.1686 13.3769 77.5284 13.2367 77.9261 13.142C78.3239 13.0473 78.7292 12.9754 79.142 12.9261C79.6648 12.8655 80.089 12.8163 80.4148 12.7784C80.7405 12.7367 80.9773 12.6705 81.125 12.5795C81.2727 12.4886 81.3466 12.3409 81.3466 12.1364V12.0966C81.3466 11.6004 81.2064 11.2159 80.9261 10.9432C80.6496 10.6705 80.2367 10.5341 79.6875 10.5341C79.1155 10.5341 78.6648 10.661 78.3352 10.9148C78.0095 11.1648 77.7841 11.4432 77.6591 11.75L76.0625 11.3864C76.2519 10.8561 76.5284 10.428 76.892 10.1023C77.2595 9.77273 77.6818 9.53409 78.1591 9.38636C78.6364 9.23485 79.1383 9.15909 79.6648 9.15909C80.0133 9.15909 80.3826 9.20076 80.7727 9.28409C81.1667 9.36364 81.5341 9.51136 81.875 9.72727C82.2197 9.94318 82.5019 10.2519 82.7216 10.6534C82.9413 11.0511 83.0511 11.5682 83.0511 12.2045V18H81.392V16.8068H81.3239C81.214 17.0265 81.0492 17.2424 80.8295 17.4545C80.6098 17.6667 80.3277 17.8428 79.983 17.983C79.6383 18.1231 79.2254 18.1932 78.7443 18.1932ZM79.1136 16.8295C79.5833 16.8295 79.9848 16.7367 80.3182 16.5511C80.6553 16.3655 80.911 16.1231 81.0852 15.8239C81.2633 15.5208 81.3523 15.197 81.3523 14.8523V13.7273C81.2917 13.7879 81.1742 13.8447 81 13.8977C80.8295 13.947 80.6345 13.9905 80.4148 14.0284C80.1951 14.0625 79.9811 14.0947 79.7727 14.125C79.5644 14.1515 79.3902 14.1742 79.25 14.1932C78.9205 14.2348 78.6193 14.3049 78.3466 14.4034C78.0777 14.5019 77.8617 14.6439 77.6989 14.8295C77.5398 15.0114 77.4602 15.2538 77.4602 15.5568C77.4602 15.9773 77.6155 16.2955 77.9261 16.5114C78.2367 16.7235 78.6326 16.8295 79.1136 16.8295ZM88.9901 18.1761C88.1454 18.1761 87.4181 17.9848 86.8082 17.6023C86.2022 17.2159 85.7363 16.6837 85.4105 16.0057C85.0848 15.3277 84.9219 14.5511 84.9219 13.6761C84.9219 12.7898 85.0885 12.0076 85.4219 11.3295C85.7552 10.6477 86.2249 10.1155 86.831 9.73295C87.437 9.35038 88.151 9.15909 88.973 9.15909C89.6359 9.15909 90.2268 9.2822 90.7457 9.52841C91.2647 9.77083 91.6832 10.1117 92.0014 10.5511C92.3234 10.9905 92.5147 11.5038 92.5753 12.0909H90.9219C90.831 11.6818 90.6226 11.3295 90.2969 11.0341C89.9749 10.7386 89.5431 10.5909 89.0014 10.5909C88.5279 10.5909 88.1132 10.7159 87.7571 10.9659C87.4048 11.2121 87.1302 11.5644 86.9332 12.0227C86.7363 12.4773 86.6378 13.0152 86.6378 13.6364C86.6378 14.2727 86.7344 14.822 86.9276 15.2841C87.1207 15.7462 87.3935 16.1042 87.7457 16.358C88.1018 16.6117 88.5204 16.7386 89.0014 16.7386C89.3234 16.7386 89.6151 16.6799 89.8764 16.5625C90.1416 16.4413 90.3632 16.2689 90.5412 16.0455C90.723 15.822 90.8499 15.553 90.9219 15.2386H92.5753C92.5147 15.803 92.331 16.3068 92.0241 16.75C91.7173 17.1932 91.3063 17.5417 90.7912 17.7955C90.2798 18.0492 89.6795 18.1761 88.9901 18.1761ZM98.4659 9.27273V10.6364H93.6989V9.27273H98.4659ZM94.9773 7.18182H96.6761V15.4375C96.6761 15.767 96.7254 16.0152 96.8239 16.1818C96.9223 16.3447 97.0492 16.4564 97.2045 16.517C97.3636 16.5739 97.536 16.6023 97.7216 16.6023C97.858 16.6023 97.9773 16.5928 98.0795 16.5739C98.1818 16.5549 98.2614 16.5398 98.3182 16.5284L98.625 17.9318C98.5265 17.9697 98.3864 18.0076 98.2045 18.0455C98.0227 18.0871 97.7955 18.1098 97.5227 18.1136C97.0758 18.1212 96.6591 18.0417 96.2727 17.875C95.8864 17.7083 95.5739 17.4508 95.3352 17.1023C95.0966 16.7538 94.9773 16.3163 94.9773 15.7898V7.18182ZM104.58 18V9.27273H106.21V10.6932H106.318C106.5 10.2121 106.797 9.83712 107.21 9.56818C107.623 9.29545 108.117 9.15909 108.693 9.15909C109.277 9.15909 109.765 9.29545 110.159 9.56818C110.557 9.84091 110.85 10.2159 111.04 10.6932H111.131C111.339 10.2273 111.67 9.85606 112.125 9.57955C112.58 9.29924 113.121 9.15909 113.75 9.15909C114.542 9.15909 115.188 9.4072 115.688 9.90341C116.191 10.3996 116.443 11.1477 116.443 12.1477V18H114.744V12.3068C114.744 11.7159 114.583 11.2879 114.261 11.0227C113.939 10.7576 113.555 10.625 113.108 10.625C112.555 10.625 112.125 10.7955 111.818 11.1364C111.511 11.4735 111.358 11.9072 111.358 12.4375V18H109.665V12.1989C109.665 11.7254 109.517 11.3447 109.222 11.0568C108.926 10.7689 108.542 10.625 108.068 10.625C107.746 10.625 107.449 10.7102 107.176 10.8807C106.907 11.0473 106.689 11.2803 106.523 11.5795C106.36 11.8788 106.278 12.2254 106.278 12.6193V18H104.58ZM122.482 18.1761C121.622 18.1761 120.881 17.9924 120.26 17.625C119.643 17.2538 119.165 16.733 118.828 16.0625C118.495 15.3883 118.328 14.5985 118.328 13.6932C118.328 12.7992 118.495 12.0114 118.828 11.3295C119.165 10.6477 119.635 10.1155 120.237 9.73295C120.843 9.35038 121.552 9.15909 122.362 9.15909C122.855 9.15909 123.332 9.24053 123.794 9.40341C124.256 9.56629 124.671 9.82197 125.038 10.1705C125.406 10.5189 125.696 10.9716 125.908 11.5284C126.12 12.0814 126.226 12.7538 126.226 13.5455V14.1477H119.288V12.875H124.561C124.561 12.428 124.47 12.0322 124.288 11.6875C124.107 11.339 123.851 11.0644 123.521 10.8636C123.196 10.6629 122.813 10.5625 122.374 10.5625C121.896 10.5625 121.48 10.6799 121.124 10.9148C120.771 11.1458 120.499 11.4489 120.305 11.8239C120.116 12.1951 120.021 12.5985 120.021 13.0341V14.0284C120.021 14.6117 120.124 15.108 120.328 15.517C120.536 15.9261 120.826 16.2386 121.197 16.4545C121.569 16.6667 122.002 16.7727 122.499 16.7727C122.821 16.7727 123.114 16.7273 123.379 16.6364C123.644 16.5417 123.874 16.4015 124.067 16.2159C124.26 16.0303 124.408 15.8011 124.51 15.5284L126.118 15.8182C125.989 16.2917 125.758 16.7064 125.425 17.0625C125.095 17.4148 124.68 17.6894 124.18 17.8864C123.684 18.0795 123.118 18.1761 122.482 18.1761ZM130.253 6.36364L130.105 14.6534H128.531L128.384 6.36364H130.253ZM129.321 18.108C129.007 18.108 128.738 17.9981 128.514 17.7784C128.291 17.5549 128.181 17.286 128.185 16.9716C128.181 16.661 128.291 16.3958 128.514 16.1761C128.738 15.9527 129.007 15.8409 129.321 15.8409C129.628 15.8409 129.893 15.9527 130.116 16.1761C130.34 16.3958 130.454 16.661 130.457 16.9716C130.454 17.1799 130.399 17.3712 130.293 17.5455C130.19 17.7159 130.054 17.8523 129.884 17.9545C129.713 18.0568 129.526 18.108 129.321 18.108Z" fill="#FE9697"/>
<path d="M12.2388 64.3091C10.2334 64.7547 2 72.1904 2 74.7448C2 75.9155 6.93952 80.3574 7.75933 81.5871C9.05367 83.5286 10.5899 85.6975 12.2388 87.3464" stroke="#FE9697" stroke-width="3" stroke-linecap="round"/>
<path d="M51.2251 32.4111C51.2251 38.9653 48.985 40.6874 42.7584 43.8806C36.7185 46.9779 26.6829 51.1042 20.4102 46.5879C16.8723 44.0406 20.8839 39.5285 23.3145 38.2197C26.697 36.3983 33.3331 36.0829 37.0483 37.0383C46.4183 39.4477 48.0771 52.62 44.1367 59.8787C39.6125 68.2126 28.0882 72.6557 19.3765 74.4493C17.088 74.9205 2.8988 76.547 5.15049 73.1694" stroke="#FE9697" stroke-width="3" stroke-linecap="round"/>
</svg>
