<svg width="53" height="59" viewBox="0 0 53 59" fill="none" xmlns="http://www.w3.org/2000/svg">
<g id="Group 1">
<path id="Vector 2" d="M12.2388 34.3091C10.2334 34.7547 2 42.1904 2 44.7448C2 45.9155 6.93952 50.3574 7.75933 51.5871C9.05367 53.5286 10.5899 55.6975 12.2388 57.3464" stroke="#FE9697" stroke-width="3" stroke-linecap="round"/>
<path id="Vector 1" d="M51.2251 2.41113C51.2251 8.96533 48.985 10.6874 42.7584 13.8806C36.7185 16.9779 26.6829 21.1042 20.4102 16.5879C16.8723 14.0406 20.8839 9.52846 23.3145 8.21968C26.697 6.39835 33.3331 6.08295 37.0483 7.03828C46.4183 9.44771 48.0771 22.62 44.1367 29.8787C39.6125 38.2126 28.0882 42.6557 19.3765 44.4493C17.088 44.9205 2.8988 46.547 5.15049 43.1694" stroke="#FE9697" stroke-width="3" stroke-linecap="round"/>
</g>
</svg>
