<svg width="43" height="42" viewBox="0 0 43 42" fill="none" xmlns="http://www.w3.org/2000/svg">
<rect width="43" height="42" rx="12" fill="url(#paint0_linear_70_2601)"/>
<path d="M10.3707 14.9091H13.4709L16.456 20.5469H16.5838L19.5689 14.9091H22.669L17.8942 23.3722V28H15.1456V23.3722L10.3707 14.9091ZM27.0491 28.1918C26.0434 28.1918 25.1783 27.9787 24.4539 27.5526C23.7337 27.1222 23.1797 26.5256 22.792 25.7628C22.4084 25 22.2167 24.1222 22.2167 23.1293C22.2167 22.1236 22.4106 21.2415 22.7983 20.483C23.1904 19.7202 23.7465 19.1257 24.4667 18.6996C25.1868 18.2692 26.0434 18.054 27.0363 18.054C27.8928 18.054 28.6428 18.2095 29.2863 18.5206C29.9297 18.8317 30.439 19.2685 30.814 19.831C31.189 20.3935 31.3956 21.054 31.434 21.8125H28.8644C28.792 21.3224 28.6002 20.9283 28.2891 20.63C27.9823 20.3274 27.5796 20.1761 27.081 20.1761C26.6591 20.1761 26.2905 20.2912 25.9752 20.5213C25.6641 20.7472 25.4212 21.0774 25.2465 21.5121C25.0718 21.9467 24.9844 22.473 24.9844 23.0909C24.9844 23.7173 25.0697 24.25 25.2401 24.6889C25.4148 25.1278 25.6599 25.4624 25.9752 25.6925C26.2905 25.9226 26.6591 26.0376 27.081 26.0376C27.3921 26.0376 27.6712 25.9737 27.9184 25.8459C28.1698 25.718 28.3765 25.5327 28.5384 25.2898C28.7046 25.0426 28.8133 24.7464 28.8644 24.4013H31.434C31.3914 25.1513 31.1868 25.8118 30.8204 26.3828C30.4581 26.9496 29.9574 27.3928 29.3182 27.7124C28.679 28.032 27.9226 28.1918 27.0491 28.1918Z" fill="#313134"/>
<defs>
<linearGradient id="paint0_linear_70_2601" x1="0" y1="0" x2="44.0801" y2="40.8341" gradientUnits="userSpaceOnUse">
<stop stop-color="#FBAAC2"/>
<stop offset="1" stop-color="#FDEED8"/>
</linearGradient>
</defs>
</svg>
